# xmcd
#
# Track frame offsets: 
#        150
#        24925
#        44355
#        63465
#        88637
#        104655
#        127720
#        150075
#        166367
#        186797
#        203275
#        220975
#
# Disc length: 3159 seconds
#
# Revision: 10
# Processed by: cddbd v1.5.2PL0 Copyright (c) Steve Scherf et al.
# Submitted via: ExactAudioCopyFreeDBPlugin 1.0
#
DISCID=900c550c
DTITLE=Djavan - Ao Vivo - Disco 1
DYEAR=1999
DGENRE=MPB
TTITLE0=Samurai
TTITLE1=Azul
TTITLE2=Meu Bem-Querer
TTITLE3=Nem Um Dia
TTITLE4=Álibi
TTITLE5=Cigano
TTITLE6=Serrado
TTITLE7=Oceano
TTITLE8=Açaí
TTITLE9=Fato Consumado
TTITLE10=Flor De Lis
TTITLE11=Amar É Tudo
EXTD=YEAR: 1999 ID3G:  17 Artist brazilian (MPB)
EXTT0=
EXTT1=
EXTT2=
EXTT3=
EXTT4=
EXTT5=
EXTT6=
EXTT7=
EXTT8=
EXTT9=
EXTT10=
EXTT11=
PLAYORDER=
